<svg xmlns="http://www.w3.org/2000/svg" viewBox="0 0 24 24" id="researchgate">
  <path fill="#2FCAAA" d="M0 24h24V0H0v24zM13.549 7.233c0-.654.472-1.628 1.822-1.628S17 6.564 17 6.564l-.574.385s-.295-.67-1.055-.67c-.423 0-1.055.391-1.055 1.055v1.435c0 .718.353 1.248.959 1.248.755 0 1.152-.584 1.152-1.435h-.959v-.574h1.629c0 1.098.251 2.673-1.822 2.673l-.001.001c-1.248 0-1.725-.841-1.725-1.724V7.233zM5.635 17.48c.831-.155 1.178-.07 1.178-1.28v-5.861c0-1.21-.343-1.125-1.178-1.28v-.434c1.382.054 2.845-.032 3.798-.032 1.698 0 2.994.771 2.994 2.442 0 1.13-.895 2.261-2.101 2.545a17.86 17.86 0 0 0 2.26 3.155c.385.418.921.787 1.457.787v.391h.002c-.353.161-1.778.321-2.679-.761-.493-.568-1.355-1.784-2.261-3.407-.477 0-.787 0-1.146-.032V16.2c0 1.259.321 1.136 1.382 1.28v.434a52.203 52.203 0 0 0-1.908-.044c-.702 0-1.398.032-1.8.044v-.434z"></path>
  <path fill="#2FCAAA" d="M9.032 13.078c1.323 0 2.127-.788 2.127-1.961 0-1.194-.745-1.848-1.993-1.848-.402 0-.863 0-1.206.032v3.734c.344.026.568.042 1.072.042v.001z"></path>
</svg>
